{"title":"Lil Twist and Lil Chuckee - Girl I Got You [KingPinVideos]","uid":5756429,"size":84277972,"categoryP":"video","categoryS":"music_videos","magnet":"?xt=urn:btih:c20e792154c08a1775f66c87449bd205aed4f7ca&amp;dn=Lil+Twist+and+Lil+Chuckee+-+Girl+I+Got+You+%5BKingPinVideos%5D&amp;tr=udp%3A%2F%2Ftracker.openbittorrent.com%3A80&amp;tr=udp%3A%2F%2Fopen.demonii.com%3A1337&amp;tr=udp%3A%2F%2Ftracker.coppersurfer.tk%3A6969&amp;tr=udp%3A%2F%2Fexodus.desync.com%3A6969","seeders":0,"leechers":0,"uploader":"KingPinMan","files":4,"time":1281577074,"description":"[img]http://a.imageshack.us/img641/797/liltwist.png[/img]\n\n[img]http://a.imageshack.us/img718/8516/liltwist2.png[/img]\n\n[code]General\nComplete name                    : Lil Twist and Lil Chuckee - Girl I Got You [KingPinVideos].mpg\nFormat                           : MPEG-PS\nFile size                        : 80.4 MiB\nDuration                         : 4mn 0s\nOverall bit rate                 : 2 806 Kbps\nWriting library                  : encoded by TMPGEnc 4.0 XPress Version. 4.7.4.299\n\nVideo\nID                               : 224 (0xE0)\nFormat                           : MPEG Video\nFormat version                   : Version 1\nFormat settings, BVOP            : Yes\nFormat settings, Matrix          : Default\nDuration                         : 4mn 0s\nBit rate mode                    : Constant\nBit rate                         : 2 567 Kbps\nNominal bit rate                 : 2 650 Kbps\nWidth                            : 384 pixels\nHeight                           : 208 pixels\nDisplay aspect ratio             : 16:9\nFrame rate                       : 29.970 fps\nResolution                       : 8 bits\nScan type                        : Progressive\nBits/(Pixel*Frame)               : 1.072\nStream size                      : 73.5 MiB (91%)\nWriting library                  : TMPGEnc XPress 4.7.4.299\n\nAudio\nID                               : 192 (0xC0)\nFormat                           : MPEG Audio\nFormat version                   : Version 1\nFormat profile                   : Layer 2\nDuration                         : 4mn 0s\nBit rate mode                    : Constant\nBit rate                         : 128 Kbps\nChannel(s)                       : 2 channels\nSampling rate                    : 48.0 KHz\nStream size                      : 3.67 MiB (5%)\n\n[/code]\n\nGet The Best and The Fresh @KingPinVideos.com \n","torrent":{"xt":"urn:btih:c20e792154c08a1775f66c87449bd205aed4f7ca","amp;dn":"Lil+Twist+and+Lil+Chuckee+-+Girl+I+Got+You+%5BKingPinVideos%5D","amp;tr":["udp%3A%2F%2Ftracker.openbittorrent.com%3A80","udp%3A%2F%2Fopen.demonii.com%3A1337","udp%3A%2F%2Ftracker.coppersurfer.tk%3A6969","udp%3A%2F%2Fexodus.desync.com%3A6969"],"infoHash":"c20e792154c08a1775f66c87449bd205aed4f7ca","infoHashBuffer":{"type":"Buffer","data":[194,14,121,33,84,192,138,23,117,246,108,135,68,155,210,5,174,212,247,202]},"announce":[],"urlList":[]}}